M48
; DRILL file {KiCad 7.0.1} date Thu May 25 12:21:22 2023
; FORMAT={-:-/ absolute / inch / decimal}
; #@! TF.CreationDate,2023-05-25T12:21:22-05:00
; #@! TF.GenerationSoftware,Kicad,Pcbnew,7.0.1
; #@! TF.FileFunction,Plated,1,2,PTH
FMAT,2
INCH
; #@! TA.AperFunction,Plated,PTH,ViaDrill
T1C0.0157
; #@! TA.AperFunction,Plated,PTH,ComponentDrill
T2C0.0315
; #@! TA.AperFunction,Plated,PTH,ComponentDrill
T3C0.0354
; #@! TA.AperFunction,Plated,PTH,ComponentDrill
T4C0.0394
; #@! TA.AperFunction,Plated,PTH,ComponentDrill
T5C0.1260
%
G90
G05
T1
X0.046Y-0.0419
X0.2035Y-1.6167
X0.2429Y-1.4593
X0.5972Y-1.3412
X0.7547Y-1.1443
X0.8122Y-0.2782
X0.8545Y-0.9264
X0.9515Y-0.2388
X1.0303Y-0.0419
X1.3452Y-1.3018
X1.3846Y-1.1837
X1.7389Y-1.1049
X1.7389Y-1.3293
X1.9358Y-0.0419
T2
X0.1004Y-0.3569
X0.4004Y-0.3569
X0.4866Y-1.4593
X0.5185Y-0.5612
X0.5185Y-0.8612
X0.5972Y-1.6242
X0.5972Y-1.9242
X0.6759Y-0.5734
X0.6759Y-0.7703
X0.7866Y-1.4593
X0.7941Y-0.5734
X0.7941Y-0.7703
X0.7941Y-1.6242
X0.7941Y-1.9242
X0.8122Y-0.3711
X0.9122Y-0.3711
X0.9122Y-0.5734
X0.9122Y-0.7703
X0.9442Y-1.4351
X0.9442Y-1.6319
X1.0122Y-0.3711
X1.1633Y-0.3293
X1.1633Y-0.4293
X1.1633Y-0.5293
X1.1633Y-0.6293
X1.1633Y-0.7293
X1.1633Y-0.8293
X1.1633Y-0.9293
X1.1633Y-1.0293
X1.1633Y-1.1293
X1.1633Y-1.2293
X1.1633Y-1.3293
X1.1633Y-1.4293
X1.1633Y-1.5293
X1.1633Y-1.6293
X1.4633Y-0.3293
X1.4633Y-0.4293
X1.4633Y-0.5293
X1.4633Y-0.6293
X1.4633Y-0.7293
X1.4633Y-0.8293
X1.4633Y-0.9293
X1.4633Y-1.0293
X1.4633Y-1.1293
X1.4633Y-1.2293
X1.4633Y-1.3293
X1.4633Y-1.4293
X1.4633Y-1.5293
X1.4633Y-1.6293
X1.6208Y-0.3372
X1.6208Y-0.5341
X1.6208Y-1.1443
X1.6208Y-1.2427
T3
X0.361Y-1.853
X0.461Y-1.853
X0.5366Y-0.3569
X0.6366Y-0.3569
X0.9696Y-1.853
X1.0696Y-1.853
T4
X0.049Y-1.844
X0.077Y-0.13
X0.08Y-0.49
X0.08Y-0.59
X0.08Y-0.69
X0.08Y-0.79
X0.08Y-0.89
X0.08Y-0.99
X0.08Y-1.09
X0.08Y-1.19
X0.08Y-1.29
X0.08Y-1.39
X0.08Y-1.49
X0.08Y-1.59
X0.249Y-1.844
X0.277Y-0.13
X0.4334Y-0.1207
X0.5334Y-0.1207
X0.6334Y-0.1207
X0.7334Y-0.1207
X0.8334Y-0.1207
X0.9334Y-0.1207
X1.2633Y-0.1207
X1.3633Y-0.1207
X1.4633Y-0.1207
X1.633Y-1.391
X1.633Y-1.491
X1.633Y-1.591
X1.7389Y-0.1207
X1.8389Y-0.1207
X1.88Y-0.49
X1.88Y-0.59
X1.88Y-0.69
X1.88Y-0.79
X1.88Y-0.89
X1.88Y-0.99
X1.88Y-1.09
X1.88Y-1.19
X1.88Y-1.29
X1.88Y-1.39
X1.88Y-1.49
X1.88Y-1.59
T5
X0.4791Y-1.1443
X1.6602Y-1.8136
T0
M30
